<svg xmlns="http://www.w3.org/2000/svg" xmlns:xlink="http://www.w3.org/1999/xlink" width="798" height="906" contentScriptType="application/ecmascript" contentStyleType="text/css" style="width:798px;height:906px;background:#fff" preserveAspectRatio="none" version="1.1" viewBox="0 0 798 906" zoomAndPan="magnify"><defs><filter id="fjq9rxfrf7tqw" width="300%" height="300%" x="-1" y="-1"><feGaussianBlur result="blurOut" stdDeviation="2"/><feColorMatrix in="blurOut" result="blurOut2" type="matrix" values="0 0 0 0 0 0 0 0 0 0 0 0 0 0 0 0 0 0 .4 0"/><feOffset dx="4" dy="4" in="blurOut2" result="blurOut3"/><feBlend in="SourceGraphic" in2="blurOut3" mode="normal"/></filter></defs><g><text x="304" y="18.686" fill="#000" font-family="sans-serif" font-size="18" lengthAdjust="spacing" textLength="177">Re:mark - ER diagram</text><rect id="ch" width="143" height="131.016" x="129.5" y="388.641" fill="#FEFECE" codeLine="4" filter="url(#fjq9rxfrf7tqw)" style="stroke:#a80036;stroke-width:1.5"/><ellipse cx="173.3" cy="404.641" fill="#ADD1B2" rx="11" ry="11" style="stroke:#a80036;stroke-width:1"/><path fill="#000" d="M176.0656,400.5156 Q176.2219,400.2969 176.4094,400.1875 Q176.5969,400.0781 176.8156,400.0781 Q177.1906,400.0781 177.425,400.3438 Q177.6594,400.5938 177.6594,401.2031 L177.6594,402.6563 Q177.6594,403.2656 177.425,403.5313 Q177.1906,403.7969 176.8156,403.7969 Q176.4719,403.7969 176.2688,403.5938 Q176.0656,403.4063 175.9563,402.8906 Q175.9094,402.5313 175.7219,402.3438 Q175.3938,401.9688 174.7844,401.75 Q174.175,401.5313 173.55,401.5313 Q172.7844,401.5313 172.1438,401.8594 Q171.5188,402.1875 171.0188,402.9375 Q170.5344,403.6875 170.5344,404.7188 L170.5344,405.8125 Q170.5344,407.0469 171.425,407.875 Q172.3156,408.6875 173.9094,408.6875 Q174.8469,408.6875 175.5031,408.4375 Q175.8938,408.2813 176.3156,407.8438 Q176.5813,407.5781 176.7219,407.5 Q176.8781,407.4219 177.0813,407.4219 Q177.4094,407.4219 177.6594,407.6875 Q177.925,407.9375 177.925,408.2813 Q177.925,408.625 177.5813,409.0313 Q177.0813,409.6094 176.2844,409.9375 Q175.2063,410.3906 173.9094,410.3906 Q172.3938,410.3906 171.1906,409.7656 Q170.2063,409.2656 169.5188,408.2031 Q168.8313,407.125 168.8313,405.8438 L168.8313,404.6875 Q168.8313,403.3594 169.4406,402.2188 Q170.0656,401.0625 171.1594,400.4531 Q172.2531,399.8281 173.4875,399.8281 Q174.2219,399.8281 174.8625,400 Q175.5188,400.1563 176.0656,400.5156 Z"/><text x="193.7" y="409.551" fill="#000" font-family="sans-serif" font-size="12" lengthAdjust="spacing" textLength="47">Channel</text><line style="stroke:#a80036;stroke-width:1.5" x1="130.5" x2="271.5" y1="420.641" y2="420.641"/><text x="135.5" y="436.06" fill="#000" font-family="sans-serif" font-size="11" lengthAdjust="spacing" textLength="72">uriName: string</text><text x="135.5" y="449.896" fill="#000" font-family="sans-serif" font-size="11" lengthAdjust="spacing" textLength="90">createdAt: number</text><text x="135.5" y="463.731" fill="#000" font-family="sans-serif" font-size="11" lengthAdjust="spacing" textLength="49">title: string</text><text x="135.5" y="477.567" fill="#000" font-family="sans-serif" font-size="11" lengthAdjust="spacing" textLength="131">descRawMarkdown: string</text><text x="135.5" y="491.403" fill="#000" font-family="sans-serif" font-size="11" lengthAdjust="spacing" textLength="73">ownerId: string</text><text x="135.5" y="505.239" fill="#000" font-family="sans-serif" font-size="11" lengthAdjust="spacing" textLength="102">moderatorIds: string[]</text><line style="stroke:#a80036;stroke-width:1.5" x1="130.5" x2="271.5" y1="511.656" y2="511.656"/><rect id="chj" width="102" height="89.508" x="45" y="231.141" fill="#FEFECE" codeLine="12" filter="url(#fjq9rxfrf7tqw)" style="stroke:#a80036;stroke-width:1.5"/><ellipse cx="60" cy="247.141" fill="#ADD1B2" rx="11" ry="11" style="stroke:#a80036;stroke-width:1"/><path fill="#000" d="M62.7656,243.0156 Q62.9219,242.7969 63.1094,242.6875 Q63.2969,242.5781 63.5156,242.5781 Q63.8906,242.5781 64.125,242.8438 Q64.3594,243.0938 64.3594,243.7031 L64.3594,245.1563 Q64.3594,245.7656 64.125,246.0313 Q63.8906,246.2969 63.5156,246.2969 Q63.1719,246.2969 62.9688,246.0938 Q62.7656,245.9063 62.6563,245.3906 Q62.6094,245.0313 62.4219,244.8438 Q62.0938,244.4688 61.4844,244.25 Q60.875,244.0313 60.25,244.0313 Q59.4844,244.0313 58.8438,244.3594 Q58.2188,244.6875 57.7188,245.4375 Q57.2344,246.1875 57.2344,247.2188 L57.2344,248.3125 Q57.2344,249.5469 58.125,250.375 Q59.0156,251.1875 60.6094,251.1875 Q61.5469,251.1875 62.2031,250.9375 Q62.5938,250.7813 63.0156,250.3438 Q63.2813,250.0781 63.4219,250 Q63.5781,249.9219 63.7813,249.9219 Q64.1094,249.9219 64.3594,250.1875 Q64.625,250.4375 64.625,250.7813 Q64.625,251.125 64.2813,251.5313 Q63.7813,252.1094 62.9844,252.4375 Q61.9063,252.8906 60.6094,252.8906 Q59.0938,252.8906 57.8906,252.2656 Q56.9063,251.7656 56.2188,250.7031 Q55.5313,249.625 55.5313,248.3438 L55.5313,247.1875 Q55.5313,245.8594 56.1406,244.7188 Q56.7656,243.5625 57.8594,242.9531 Q58.9531,242.3281 60.1875,242.3281 Q60.9219,242.3281 61.5625,242.5 Q62.2188,242.6563 62.7656,243.0156 Z"/><text x="74" y="252.051" fill="#000" font-family="sans-serif" font-size="12" lengthAdjust="spacing" textLength="70">ChannelJoin</text><line style="stroke:#a80036;stroke-width:1.5" x1="46" x2="146" y1="263.141" y2="263.141"/><text x="51" y="278.56" fill="#000" font-family="sans-serif" font-size="11" lengthAdjust="spacing" textLength="90">createdAt: number</text><text x="51" y="292.396" fill="#000" font-family="sans-serif" font-size="11" lengthAdjust="spacing" textLength="63">userId: string</text><text x="51" y="306.231" fill="#000" font-family="sans-serif" font-size="11" lengthAdjust="spacing" textLength="79">channelId: string</text><line style="stroke:#a80036;stroke-width:1.5" x1="46" x2="146" y1="312.648" y2="312.648"/><rect id="p" width="142" height="131.016" x="255" y="597.641" fill="#FEFECE" codeLine="17" filter="url(#fjq9rxfrf7tqw)" style="stroke:#a80036;stroke-width:1.5"/><ellipse cx="309.25" cy="613.641" fill="#ADD1B2" rx="11" ry="11" style="stroke:#a80036;stroke-width:1"/><path fill="#000" d="M312.0156,609.5156 Q312.1719,609.2969 312.3594,609.1875 Q312.5469,609.0781 312.7656,609.0781 Q313.1406,609.0781 313.375,609.3438 Q313.6094,609.5938 313.6094,610.2031 L313.6094,611.6563 Q313.6094,612.2656 313.375,612.5313 Q313.1406,612.7969 312.7656,612.7969 Q312.4219,612.7969 312.2188,612.5938 Q312.0156,612.4063 311.9063,611.8906 Q311.8594,611.5313 311.6719,611.3438 Q311.3438,610.9688 310.7344,610.75 Q310.125,610.5313 309.5,610.5313 Q308.7344,610.5313 308.0938,610.8594 Q307.4688,611.1875 306.9688,611.9375 Q306.4844,612.6875 306.4844,613.7188 L306.4844,614.8125 Q306.4844,616.0469 307.375,616.875 Q308.2656,617.6875 309.8594,617.6875 Q310.7969,617.6875 311.4531,617.4375 Q311.8438,617.2813 312.2656,616.8438 Q312.5313,616.5781 312.6719,616.5 Q312.8281,616.4219 313.0313,616.4219 Q313.3594,616.4219 313.6094,616.6875 Q313.875,616.9375 313.875,617.2813 Q313.875,617.625 313.5313,618.0313 Q313.0313,618.6094 312.2344,618.9375 Q311.1563,619.3906 309.8594,619.3906 Q308.3438,619.3906 307.1406,618.7656 Q306.1563,618.2656 305.4688,617.2031 Q304.7813,616.125 304.7813,614.8438 L304.7813,613.6875 Q304.7813,612.3594 305.3906,611.2188 Q306.0156,610.0625 307.1094,609.4531 Q308.2031,608.8281 309.4375,608.8281 Q310.1719,608.8281 310.8125,609 Q311.4688,609.1563 312.0156,609.5156 Z"/><text x="329.75" y="618.551" fill="#000" font-family="sans-serif" font-size="12" lengthAdjust="spacing" textLength="25">Post</text><line style="stroke:#a80036;stroke-width:1.5" x1="256" x2="396" y1="629.641" y2="629.641"/><text x="261" y="645.06" fill="#000" font-family="sans-serif" font-size="11" lengthAdjust="spacing" textLength="90">createdAt: number</text><text x="261" y="658.895" fill="#000" font-family="sans-serif" font-size="11" lengthAdjust="spacing" textLength="49">title: string</text><text x="261" y="672.731" fill="#000" font-family="sans-serif" font-size="11" lengthAdjust="spacing" textLength="104">rawMarkdown: string</text><text x="261" y="686.567" fill="#000" font-family="sans-serif" font-size="11" lengthAdjust="spacing" textLength="85">publisherId: string</text><text x="261" y="700.403" fill="#000" font-family="sans-serif" font-size="11" lengthAdjust="spacing" textLength="111">parentChannelId: string</text><text x="261" y="714.239" fill="#000" font-family="sans-serif" font-size="11" lengthAdjust="spacing" textLength="130">imageUrl: string | undefined</text><line style="stroke:#a80036;stroke-width:1.5" x1="256" x2="396" y1="720.656" y2="720.656"/><rect id="c" width="116" height="103.344" x="354" y="789.641" fill="#FEFECE" codeLine="25" filter="url(#fjq9rxfrf7tqw)" style="stroke:#a80036;stroke-width:1.5"/><ellipse cx="382.05" cy="805.641" fill="#ADD1B2" rx="11" ry="11" style="stroke:#a80036;stroke-width:1"/><path fill="#000" d="M384.8156,801.5156 Q384.9719,801.2969 385.1594,801.1875 Q385.3469,801.0781 385.5656,801.0781 Q385.9406,801.0781 386.175,801.3438 Q386.4094,801.5938 386.4094,802.2031 L386.4094,803.6563 Q386.4094,804.2656 386.175,804.5313 Q385.9406,804.7969 385.5656,804.7969 Q385.2219,804.7969 385.0188,804.5938 Q384.8156,804.4063 384.7063,803.8906 Q384.6594,803.5313 384.4719,803.3438 Q384.1438,802.9688 383.5344,802.75 Q382.925,802.5313 382.3,802.5313 Q381.5344,802.5313 380.8938,802.8594 Q380.2688,803.1875 379.7688,803.9375 Q379.2844,804.6875 379.2844,805.7188 L379.2844,806.8125 Q379.2844,808.0469 380.175,808.875 Q381.0656,809.6875 382.6594,809.6875 Q383.5969,809.6875 384.2531,809.4375 Q384.6438,809.2813 385.0656,808.8438 Q385.3313,808.5781 385.4719,808.5 Q385.6281,808.4219 385.8313,808.4219 Q386.1594,808.4219 386.4094,808.6875 Q386.675,808.9375 386.675,809.2813 Q386.675,809.625 386.3313,810.0313 Q385.8313,810.6094 385.0344,810.9375 Q383.9563,811.3906 382.6594,811.3906 Q381.1438,811.3906 379.9406,810.7656 Q378.9563,810.2656 378.2688,809.2031 Q377.5813,808.125 377.5813,806.8438 L377.5813,805.6875 Q377.5813,804.3594 378.1906,803.2188 Q378.8156,802.0625 379.9094,801.4531 Q381.0031,800.8281 382.2375,800.8281 Q382.9719,800.8281 383.6125,801 Q384.2688,801.1563 384.8156,801.5156 Z"/><text x="398.95" y="810.551" fill="#000" font-family="sans-serif" font-size="12" lengthAdjust="spacing" textLength="55">Comment</text><line style="stroke:#a80036;stroke-width:1.5" x1="355" x2="469" y1="821.641" y2="821.641"/><text x="360" y="837.06" fill="#000" font-family="sans-serif" font-size="11" lengthAdjust="spacing" textLength="90">createdAt: number</text><text x="360" y="850.895" fill="#000" font-family="sans-serif" font-size="11" lengthAdjust="spacing" textLength="104">rawMarkdown: string</text><text x="360" y="864.731" fill="#000" font-family="sans-serif" font-size="11" lengthAdjust="spacing" textLength="85">publisherId: string</text><text x="360" y="878.567" fill="#000" font-family="sans-serif" font-size="11" lengthAdjust="spacing" textLength="93">parentPostId: string</text><line style="stroke:#a80036;stroke-width:1.5" x1="355" x2="469" y1="884.984" y2="884.984"/><rect id="cv" width="111" height="89.508" x="523.5" y="231.141" fill="#FEFECE" codeLine="31" filter="url(#fjq9rxfrf7tqw)" style="stroke:#a80036;stroke-width:1.5"/><ellipse cx="538.5" cy="247.141" fill="#ADD1B2" rx="11" ry="11" style="stroke:#a80036;stroke-width:1"/><path fill="#000" d="M541.2656,243.0156 Q541.4219,242.7969 541.6094,242.6875 Q541.7969,242.5781 542.0156,242.5781 Q542.3906,242.5781 542.625,242.8438 Q542.8594,243.0938 542.8594,243.7031 L542.8594,245.1563 Q542.8594,245.7656 542.625,246.0313 Q542.3906,246.2969 542.0156,246.2969 Q541.6719,246.2969 541.4688,246.0938 Q541.2656,245.9063 541.1563,245.3906 Q541.1094,245.0313 540.9219,244.8438 Q540.5938,244.4688 539.9844,244.25 Q539.375,244.0313 538.75,244.0313 Q537.9844,244.0313 537.3438,244.3594 Q536.7188,244.6875 536.2188,245.4375 Q535.7344,246.1875 535.7344,247.2188 L535.7344,248.3125 Q535.7344,249.5469 536.625,250.375 Q537.5156,251.1875 539.1094,251.1875 Q540.0469,251.1875 540.7031,250.9375 Q541.0938,250.7813 541.5156,250.3438 Q541.7813,250.0781 541.9219,250 Q542.0781,249.9219 542.2813,249.9219 Q542.6094,249.9219 542.8594,250.1875 Q543.125,250.4375 543.125,250.7813 Q543.125,251.125 542.7813,251.5313 Q542.2813,252.1094 541.4844,252.4375 Q540.4063,252.8906 539.1094,252.8906 Q537.5938,252.8906 536.3906,252.2656 Q535.4063,251.7656 534.7188,250.7031 Q534.0313,249.625 534.0313,248.3438 L534.0313,247.1875 Q534.0313,245.8594 534.6406,244.7188 Q535.2656,243.5625 536.3594,242.9531 Q537.4531,242.3281 538.6875,242.3281 Q539.4219,242.3281 540.0625,242.5 Q540.7188,242.6563 541.2656,243.0156 Z"/><text x="552.5" y="252.051" fill="#000" font-family="sans-serif" font-size="12" lengthAdjust="spacing" textLength="79">CommentVote</text><line style="stroke:#a80036;stroke-width:1.5" x1="524.5" x2="633.5" y1="263.141" y2="263.141"/><text x="529.5" y="278.56" fill="#000" font-family="sans-serif" font-size="11" lengthAdjust="spacing" textLength="63">userId: string</text><text x="529.5" y="292.396" fill="#000" font-family="sans-serif" font-size="11" lengthAdjust="spacing" textLength="84">commentId: string</text><text x="529.5" y="306.231" fill="#000" font-family="sans-serif" font-size="11" lengthAdjust="spacing" textLength="86">isUpvote: boolean</text><line style="stroke:#a80036;stroke-width:1.5" x1="524.5" x2="633.5" y1="312.648" y2="312.648"/><rect id="pv" width="98" height="89.508" x="351" y="231.141" fill="#FEFECE" codeLine="36" filter="url(#fjq9rxfrf7tqw)" style="stroke:#a80036;stroke-width:1.5"/><ellipse cx="373.65" cy="247.141" fill="#ADD1B2" rx="11" ry="11" style="stroke:#a80036;stroke-width:1"/><path fill="#000" d="M376.4156,243.0156 Q376.5719,242.7969 376.7594,242.6875 Q376.9469,242.5781 377.1656,242.5781 Q377.5406,242.5781 377.775,242.8438 Q378.0094,243.0938 378.0094,243.7031 L378.0094,245.1563 Q378.0094,245.7656 377.775,246.0313 Q377.5406,246.2969 377.1656,246.2969 Q376.8219,246.2969 376.6188,246.0938 Q376.4156,245.9063 376.3063,245.3906 Q376.2594,245.0313 376.0719,244.8438 Q375.7438,244.4688 375.1344,244.25 Q374.525,244.0313 373.9,244.0313 Q373.1344,244.0313 372.4938,244.3594 Q371.8688,244.6875 371.3688,245.4375 Q370.8844,246.1875 370.8844,247.2188 L370.8844,248.3125 Q370.8844,249.5469 371.775,250.375 Q372.6656,251.1875 374.2594,251.1875 Q375.1969,251.1875 375.8531,250.9375 Q376.2438,250.7813 376.6656,250.3438 Q376.9313,250.0781 377.0719,250 Q377.2281,249.9219 377.4313,249.9219 Q377.7594,249.9219 378.0094,250.1875 Q378.275,250.4375 378.275,250.7813 Q378.275,251.125 377.9313,251.5313 Q377.4313,252.1094 376.6344,252.4375 Q375.5563,252.8906 374.2594,252.8906 Q372.7438,252.8906 371.5406,252.2656 Q370.5563,251.7656 369.8688,250.7031 Q369.1813,249.625 369.1813,248.3438 L369.1813,247.1875 Q369.1813,245.8594 369.7906,244.7188 Q370.4156,243.5625 371.5094,242.9531 Q372.6031,242.3281 373.8375,242.3281 Q374.5719,242.3281 375.2125,242.5 Q375.8688,242.6563 376.4156,243.0156 Z"/><text x="389.35" y="252.051" fill="#000" font-family="sans-serif" font-size="12" lengthAdjust="spacing" textLength="49">PostVote</text><line style="stroke:#a80036;stroke-width:1.5" x1="352" x2="448" y1="263.141" y2="263.141"/><text x="357" y="278.56" fill="#000" font-family="sans-serif" font-size="11" lengthAdjust="spacing" textLength="63">userId: string</text><text x="357" y="292.396" fill="#000" font-family="sans-serif" font-size="11" lengthAdjust="spacing" textLength="62">postId: string</text><text x="357" y="306.231" fill="#000" font-family="sans-serif" font-size="11" lengthAdjust="spacing" textLength="86">isUpvote: boolean</text><line style="stroke:#a80036;stroke-width:1.5" x1="352" x2="448" y1="312.648" y2="312.648"/><rect id="n" width="114" height="103.344" x="670" y="224.641" fill="#FEFECE" codeLine="41" filter="url(#fjq9rxfrf7tqw)" style="stroke:#a80036;stroke-width:1.5"/><ellipse cx="694.45" cy="240.641" fill="#ADD1B2" rx="11" ry="11" style="stroke:#a80036;stroke-width:1"/><path fill="#000" d="M697.2156,236.5156 Q697.3719,236.2969 697.5594,236.1875 Q697.7469,236.0781 697.9656,236.0781 Q698.3406,236.0781 698.575,236.3438 Q698.8094,236.5938 698.8094,237.2031 L698.8094,238.6563 Q698.8094,239.2656 698.575,239.5313 Q698.3406,239.7969 697.9656,239.7969 Q697.6219,239.7969 697.4188,239.5938 Q697.2156,239.4063 697.1063,238.8906 Q697.0594,238.5313 696.8719,238.3438 Q696.5438,237.9688 695.9344,237.75 Q695.325,237.5313 694.7,237.5313 Q693.9344,237.5313 693.2938,237.8594 Q692.6688,238.1875 692.1688,238.9375 Q691.6844,239.6875 691.6844,240.7188 L691.6844,241.8125 Q691.6844,243.0469 692.575,243.875 Q693.4656,244.6875 695.0594,244.6875 Q695.9969,244.6875 696.6531,244.4375 Q697.0438,244.2813 697.4656,243.8438 Q697.7313,243.5781 697.8719,243.5 Q698.0281,243.4219 698.2313,243.4219 Q698.5594,243.4219 698.8094,243.6875 Q699.075,243.9375 699.075,244.2813 Q699.075,244.625 698.7313,245.0313 Q698.2313,245.6094 697.4344,245.9375 Q696.3563,246.3906 695.0594,246.3906 Q693.5438,246.3906 692.3406,245.7656 Q691.3563,245.2656 690.6688,244.2031 Q689.9813,243.125 689.9813,241.8438 L689.9813,240.6875 Q689.9813,239.3594 690.5906,238.2188 Q691.2156,237.0625 692.3094,236.4531 Q693.4031,235.8281 694.6375,235.8281 Q695.3719,235.8281 696.0125,236 Q696.6688,236.1563 697.2156,236.5156 Z"/><text x="710.55" y="245.551" fill="#000" font-family="sans-serif" font-size="12" lengthAdjust="spacing" textLength="61">Notification</text><line style="stroke:#a80036;stroke-width:1.5" x1="671" x2="783" y1="256.641" y2="256.641"/><text x="676" y="272.06" fill="#000" font-family="sans-serif" font-size="11" lengthAdjust="spacing" textLength="90">createdAt: number</text><text x="676" y="285.896" fill="#000" font-family="sans-serif" font-size="11" lengthAdjust="spacing" textLength="96">messageTitle: string</text><text x="676" y="299.731" fill="#000" font-family="sans-serif" font-size="11" lengthAdjust="spacing" textLength="102">messageBody: string</text><text x="676" y="313.567" fill="#000" font-family="sans-serif" font-size="11" lengthAdjust="spacing" textLength="63">userId: string</text><line style="stroke:#a80036;stroke-width:1.5" x1="671" x2="783" y1="319.984" y2="319.984"/><rect id="u" width="142" height="117.18" x="243" y="29.641" fill="#FEFECE" codeLine="47" filter="url(#fjq9rxfrf7tqw)" style="stroke:#a80036;stroke-width:1.5"/><ellipse cx="296.25" cy="45.641" fill="#ADD1B2" rx="11" ry="11" style="stroke:#a80036;stroke-width:1"/><path fill="#000" d="M299.0156,41.5156 Q299.1719,41.2969 299.3594,41.1875 Q299.5469,41.0781 299.7656,41.0781 Q300.1406,41.0781 300.375,41.3438 Q300.6094,41.5938 300.6094,42.2031 L300.6094,43.6563 Q300.6094,44.2656 300.375,44.5313 Q300.1406,44.7969 299.7656,44.7969 Q299.4219,44.7969 299.2188,44.5938 Q299.0156,44.4063 298.9063,43.8906 Q298.8594,43.5313 298.6719,43.3438 Q298.3438,42.9688 297.7344,42.75 Q297.125,42.5313 296.5,42.5313 Q295.7344,42.5313 295.0938,42.8594 Q294.4688,43.1875 293.9688,43.9375 Q293.4844,44.6875 293.4844,45.7188 L293.4844,46.8125 Q293.4844,48.0469 294.375,48.875 Q295.2656,49.6875 296.8594,49.6875 Q297.7969,49.6875 298.4531,49.4375 Q298.8438,49.2813 299.2656,48.8438 Q299.5313,48.5781 299.6719,48.5 Q299.8281,48.4219 300.0313,48.4219 Q300.3594,48.4219 300.6094,48.6875 Q300.875,48.9375 300.875,49.2813 Q300.875,49.625 300.5313,50.0313 Q300.0313,50.6094 299.2344,50.9375 Q298.1563,51.3906 296.8594,51.3906 Q295.3438,51.3906 294.1406,50.7656 Q293.1563,50.2656 292.4688,49.2031 Q291.7813,48.125 291.7813,46.8438 L291.7813,45.6875 Q291.7813,44.3594 292.3906,43.2188 Q293.0156,42.0625 294.1094,41.4531 Q295.2031,40.8281 296.4375,40.8281 Q297.1719,40.8281 297.8125,41 Q298.4688,41.1563 299.0156,41.5156 Z"/><text x="316.75" y="50.551" fill="#000" font-family="sans-serif" font-size="12" lengthAdjust="spacing" textLength="27">User</text><line style="stroke:#a80036;stroke-width:1.5" x1="244" x2="384" y1="61.641" y2="61.641"/><text x="249" y="77.06" fill="#000" font-family="sans-serif" font-size="11" lengthAdjust="spacing" textLength="57">email: string</text><text x="249" y="90.895" fill="#000" font-family="sans-serif" font-size="11" lengthAdjust="spacing" textLength="81">username: string</text><text x="249" y="104.731" fill="#000" font-family="sans-serif" font-size="11" lengthAdjust="spacing" textLength="77">lastName: string</text><text x="249" y="118.567" fill="#000" font-family="sans-serif" font-size="11" lengthAdjust="spacing" textLength="79">firstName: string</text><text x="249" y="132.403" fill="#000" font-family="sans-serif" font-size="11" lengthAdjust="spacing" textLength="130">imageUrl: string | undefined</text><line style="stroke:#a80036;stroke-width:1.5" x1="244" x2="384" y1="138.82" y2="138.82"/><ellipse cx="8" cy="276.141" fill="#000" rx="2" ry="2" style="stroke:none;stroke-width:1"/><ellipse cx="314" cy="276.141" fill="#000" rx="2" ry="2" style="stroke:none;stroke-width:1"/><ellipse cx="486" cy="276.141" fill="#000" rx="2" ry="2" style="stroke:none;stroke-width:1"/><path id="ch-p" fill="none" d="M237.66,519.6606 C246.79,535.4306 256.65,552.2106 266,567.6406 C271.89,577.3606 278.22,587.5806 284.49,597.5506" codeLine="55" style="stroke:#a80036;stroke-width:1"/><text x="267" y="564.136" fill="#000" font-family="sans-serif" font-size="13" lengthAdjust="spacing" textLength="32">posts</text><text x="234.287" y="541.215" fill="#000" font-family="sans-serif" font-size="13" lengthAdjust="spacing" textLength="7">1</text><text x="258.534" y="586.556" fill="#000" font-family="sans-serif" font-size="13" lengthAdjust="spacing" textLength="20">0..*</text><path id="u-apoint12" fill="none" d="M242.88,106.2706 C178.49,125.1806 85.08,161.6406 27,224.6406 C12.78,240.0706 8.9,267.1606 8.15,273.6906" style="stroke:#a80036;stroke-width:1"/><text x="81" y="191.136" fill="#000" font-family="sans-serif" font-size="13" lengthAdjust="spacing" textLength="20">join</text><text x="214.895" y="104.771" fill="#000" font-family="sans-serif" font-size="13" lengthAdjust="spacing" textLength="20">0..*</text><path id="apoint12-ch" fill="none" d="M8.22,278.5306 C9.27,284.8106 14.25,310.9706 27,327.6406 C54.27,363.2906 94.41,393.1906 129.28,414.8406" style="stroke:#a80036;stroke-width:1"/><text x="101.491" y="407.844" fill="#000" font-family="sans-serif" font-size="13" lengthAdjust="spacing" textLength="20">0..*</text><path id="apoint12-chj" fill="none" d="M10.06,276.1406 C21.7,276.1406 33.34,276.1406 44.97,276.1406" style="stroke:#a80036;stroke-width:1;stroke-dasharray:7,7"/><path id="u-ch" fill="none" d="M273.27,146.7106 C258.69,169.9306 243.52,197.5806 234,224.6406 C215.24,277.9506 207.13,341.8506 203.64,388.5106" codeLine="59" style="stroke:#a80036;stroke-width:1"/><text x="235" y="281.636" fill="#000" font-family="sans-serif" font-size="13" lengthAdjust="spacing" textLength="58">ownership</text><text x="260.88" y="168.329" fill="#000" font-family="sans-serif" font-size="13" lengthAdjust="spacing" textLength="7">1</text><text x="182.835" y="377.971" fill="#000" font-family="sans-serif" font-size="13" lengthAdjust="spacing" textLength="20">0..*</text><path id="p-c" fill="none" d="M357.53,728.6806 C367.31,748.6906 377.95,770.4506 387.2,789.3906" codeLine="61" style="stroke:#a80036;stroke-width:1"/><text x="353.596" y="750.238" fill="#000" font-family="sans-serif" font-size="13" lengthAdjust="spacing" textLength="7">1</text><text x="362.524" y="778.857" fill="#000" font-family="sans-serif" font-size="13" lengthAdjust="spacing" textLength="20">0..*</text><path id="u-apoint20" fill="none" d="M314,146.7206 C314,197.5006 314,264.8606 314,274.0806" style="stroke:#a80036;stroke-width:1"/><text x="292.781" y="168.341" fill="#000" font-family="sans-serif" font-size="13" lengthAdjust="spacing" textLength="20">0..*</text><path id="apoint20-p" fill="none" d="M314.03,278.2406 C314.55,294.7606 320.71,492.5106 323.99,597.5206" style="stroke:#a80036;stroke-width:1"/><text x="302.676" y="586.982" fill="#000" font-family="sans-serif" font-size="13" lengthAdjust="spacing" textLength="20">0..*</text><path id="apoint20-pv" fill="none" d="M316.02,276.1406 C327.61,276.1406 339.2,276.1406 350.79,276.1406" style="stroke:#a80036;stroke-width:1;stroke-dasharray:7,7"/><path id="u-apoint26" fill="none" d="M385.35,140.9406 C413.38,164.0706 444.03,193.2006 466,224.6406 C478.1,241.9506 484.34,267.6306 485.71,273.7806" style="stroke:#a80036;stroke-width:1"/><text x="393.104" y="142.714" fill="#000" font-family="sans-serif" font-size="13" lengthAdjust="spacing" textLength="20">0..*</text><path id="apoint26-c" fill="none" d="M485.84,278.3806 C482.74,301.9606 436.26,655.5406 418.68,789.3506" style="stroke:#a80036;stroke-width:1"/><text x="398.234" y="778.812" fill="#000" font-family="sans-serif" font-size="13" lengthAdjust="spacing" textLength="20">0..*</text><path id="apoint26-cv" fill="none" d="M488.18,276.1406 C499.89,276.1406 511.59,276.1406 523.3,276.1406" style="stroke:#a80036;stroke-width:1;stroke-dasharray:7,7"/><path id="u-n" fill="none" d="M385.2,112.7306 C454.98,136.9806 563.44,177.7506 652,224.6406 C657.83,227.7206 663.76,231.1606 669.61,234.7406" codeLine="68" style="stroke:#a80036;stroke-width:1"/><text x="392.903" y="111.945" fill="#000" font-family="sans-serif" font-size="13" lengthAdjust="spacing" textLength="7">1</text><text x="641.818" y="226.524" fill="#000" font-family="sans-serif" font-size="13" lengthAdjust="spacing" textLength="20">0..*</text></g></svg>